<?xml version="1.0" encoding="utf-8"?>
<!-- Generator: Adobe Illustrator 15.0.0, SVG Export Plug-In . SVG Version: 6.00 Build 0)  -->
<!DOCTYPE svg PUBLIC "-//W3C//DTD SVG 1.1//EN" "http://www.w3.org/Graphics/SVG/1.1/DTD/svg11.dtd">
<svg version="1.1"
	 id="svg2" xmlns:dc="http://purl.org/dc/elements/1.1/" xmlns:rdf="http://www.w3.org/1999/02/22-rdf-syntax-ns#" xmlns:cc="http://creativecommons.org/ns#" xmlns:svg="http://www.w3.org/2000/svg"
	 xmlns="http://www.w3.org/2000/svg" xmlns:xlink="http://www.w3.org/1999/xlink" x="0px" y="0px" width="128px" height="256px"
	 viewBox="0 0 128 256" enable-background="new 0 0 128 256" xml:space="preserve">
<symbol  id="back" viewBox="-56.688 -50.031 113.376 100.063">
	
		<linearGradient id="SVGID_1_" gradientUnits="userSpaceOnUse" x1="-57.4297" y1="-134.5703" x2="70.5703" y2="-6.5703" gradientTransform="matrix(1 0 0 1 0 64)">
		<stop  offset="0" style="stop-color:#06E1F7"/>
		<stop  offset="1" style="stop-color:#BAF9FF"/>
	</linearGradient>
	<path fill="url(#SVGID_1_)" d="M4.469-50.031L-56.688,0L4.469,50.031v-24.25h52.219v-52.063H4.469V-50.031z"/>
</symbol>
<symbol  id="binary-file" viewBox="-40.625 -52.766 81.251 105.531">
	
		<linearGradient id="SVGID_2_" gradientUnits="userSpaceOnUse" x1="-69.4375" y1="-122.5625" x2="58.5625" y2="5.4375" gradientTransform="matrix(1 0 0 1 0 64)">
		<stop  offset="0" style="stop-color:#06E1F7"/>
		<stop  offset="1" style="stop-color:#BAF9FF"/>
	</linearGradient>
	<path fill="url(#SVGID_2_)" d="M-34.906-52.765c-3.184,0-5.719,2.565-5.719,5.75v94.03c0,3.185,2.535,5.75,5.719,5.75h69.813
		c3.184,0,5.719-2.565,5.719-5.75V-23.64H19.594c-4.306,0-8.063-3.142-8.063-7.313v-21.813L-34.906-52.765L-34.906-52.765z
		 M15.53-52.765v21.813c0,1.714,1.632,3.313,4.063,3.313h21.031L15.53-52.765z M-16.72-13.077c2.082,0,3.702,0.733,4.875,2.219
		c1.398,1.76,2.094,4.705,2.094,8.781c0,4.066-0.686,6.971-2.094,8.75c-1.163,1.466-2.793,2.188-4.875,2.188
		c-2.092,0-3.782-0.771-5.063-2.375c-1.28-1.613-1.938-4.5-1.938-8.625c0-4.047,0.717-6.972,2.125-8.75
		C-20.432-12.355-18.801-13.077-16.72-13.077z M0.219-13.077h3.344V8.517h-4.125V-7.015c-1.505,1.406-3.27,2.449-5.313,3.125v-3.75
		c1.075-0.353,2.239-1.022,3.5-2C-1.114-10.627-0.25-11.768,0.219-13.077z M16.719-13.077c2.082,0,3.702,0.733,4.875,2.219
		c1.398,1.761,2.094,4.705,2.094,8.781c0,4.066-0.717,6.971-2.125,8.75c-1.163,1.466-2.762,2.188-4.844,2.188
		c-2.092,0-3.782-0.771-5.063-2.375c-1.28-1.613-1.938-4.5-1.938-8.625c0-4.047,0.717-6.972,2.125-8.75
		C13.006-12.355,14.637-13.077,16.719-13.077z M-16.72-9.671c-0.499,0-0.953,0.178-1.344,0.5c-0.391,0.313-0.691,0.866-0.906,1.688
		c-0.284,1.065-0.438,2.886-0.438,5.406c0,2.521,0.153,4.239,0.407,5.188c0.254,0.938,0.556,1.563,0.938,1.875
		c0.391,0.313,0.845,0.469,1.344,0.469c0.499,0,0.921-0.156,1.313-0.469c0.391-0.322,0.723-0.897,0.938-1.72
		c0.284-1.056,0.406-2.821,0.406-5.344c0-2.521-0.121-4.28-0.375-5.219c-0.254-0.948-0.578-1.563-0.969-1.875
		C-15.789-9.493-16.221-9.671-16.72-9.671z M16.719-9.671c-0.499,0-0.953,0.178-1.344,0.5c-0.391,0.313-0.691,0.866-0.906,1.688
		c-0.284,1.065-0.438,2.886-0.438,5.406c0,2.521,0.121,4.239,0.375,5.188c0.254,0.938,0.587,1.563,0.969,1.875
		c0.391,0.313,0.845,0.469,1.344,0.469c0.499,0,0.921-0.156,1.313-0.469c0.391-0.322,0.691-0.897,0.906-1.72
		c0.284-1.056,0.438-2.821,0.438-5.344c0-2.521-0.122-4.28-0.376-5.219c-0.254-0.948-0.578-1.563-0.969-1.875
		C17.649-9.493,17.216-9.671,16.719-9.671z M-16.5,16.954h3.344v21.594h-4.125V23.017c-1.505,1.407-3.27,2.45-5.313,3.125v-3.75
		c1.075-0.352,2.239-1.021,3.5-2C-17.833,19.404-16.97,18.264-16.5,16.954z M0,16.954c2.082,0,3.702,0.732,4.875,2.219
		c1.398,1.76,2.094,4.674,2.094,8.75c0,4.066-0.717,7.002-2.125,8.781C3.681,38.17,2.082,38.892,0,38.892
		c-2.092,0-3.782-0.803-5.063-2.405C-6.343,34.872-7,32.017-7,27.892c0-4.047,0.717-6.971,2.125-8.75
		C-3.712,17.676-2.083,16.954,0,16.954z M16.938,16.954h3.344v21.594h-4.125V23.017c-1.505,1.407-3.27,2.45-5.313,3.125v-3.75
		c1.075-0.352,2.239-1.021,3.5-2C15.604,19.404,16.467,18.264,16.938,16.954z M0,20.36c-0.499,0-0.953,0.178-1.344,0.5
		c-0.391,0.313-0.691,0.865-0.906,1.688c-0.284,1.065-0.438,2.854-0.438,5.375c0,2.521,0.121,4.271,0.375,5.219
		c0.254,0.938,0.587,1.563,0.969,1.875C-0.954,35.33-0.5,35.486,0,35.486s0.921-0.156,1.313-0.47
		c0.391-0.321,0.691-0.896,0.906-1.719c0.284-1.056,0.438-2.854,0.438-5.375c0-2.521-0.121-4.249-0.375-5.188
		c-0.254-0.948-0.578-1.563-0.969-1.875C0.931,20.538,0.499,20.36,0,20.36z"/>
</symbol>
<symbol  id="blank-file" viewBox="-40.625 -52.765 81.251 105.529">
	
		<linearGradient id="SVGID_3_" gradientUnits="userSpaceOnUse" x1="-69.4375" y1="-122.5625" x2="58.5625" y2="5.4375" gradientTransform="matrix(1 0 0 1 0 64)">
		<stop  offset="0" style="stop-color:#06E1F7"/>
		<stop  offset="1" style="stop-color:#BAF9FF"/>
	</linearGradient>
	<path fill="url(#SVGID_3_)" d="M-34.906-52.764c-3.184,0-5.719,2.565-5.719,5.75v94.028c0,3.185,2.535,5.75,5.719,5.75h69.813
		c3.184,0,5.719-2.565,5.719-5.75v-70.653H19.594c-4.306,0-8.063-3.142-8.063-7.313v-21.813L-34.906-52.764L-34.906-52.764z
		 M15.53-52.764v21.813c0,1.715,1.632,3.313,4.063,3.313h21.031L15.53-52.764z"/>
</symbol>
<symbol  id="css-file" viewBox="-40.625 -52.755 81.251 105.509">
	
		<linearGradient id="SVGID_4_" gradientUnits="userSpaceOnUse" x1="-69.4375" y1="-122.5596" x2="58.5625" y2="5.4404" gradientTransform="matrix(1 0 0 1 0 64)">
		<stop  offset="0" style="stop-color:#06E1F7"/>
		<stop  offset="1" style="stop-color:#BAF9FF"/>
	</linearGradient>
	<path fill="url(#SVGID_4_)" d="M-35.5-52.746c-2.902,0.294-5.125,2.766-5.125,5.75v94c0,3.185,2.535,5.75,5.719,5.75h69.813
		c3.184,0,5.719-2.565,5.719-5.75v-70.625H19.594c-4.306,0-8.063-3.141-8.063-7.313v-21.813h-46.438
		C-35.105-52.746-35.308-52.766-35.5-52.746z M15.53-52.746v21.813c0,1.714,1.632,3.313,4.063,3.313h21.031L15.53-52.746z
		 M-15.938-14.434v2c-2.84,0.597-4.822,1.39-6,2.405c-1.065,0.92-1.711,2.257-1.938,4.031C-23.957-5.286-24-3.125-24,0.473
		c0,3.921-0.911,6.654-2.75,8.188c-1.372,1.162-4.12,2.102-8.25,2.844c4.663,0.518,7.719,1.78,9.188,3.781
		c1.274,1.742,1.938,5.063,1.938,9.969c0,3.372,0.467,5.754,1.5,7.125c1.162,1.533,3.398,2.459,6.625,2.781v2.094
		c-8.374,0-12.726-3.218-13-9.688c0-0.081,0-1.684,0-4.813c0-3.582-0.588-6.021-1.75-7.313c-1.146-1.291-3.483-2.173-7-2.656V10.16
		c3.695-0.549,6.135-1.563,7.313-3.031c0.919-1.129,1.375-3.143,1.375-6.063c0-0.403,0.016-1.079,0-2.031
		c-0.016-0.968,0-1.748,0-2.313c0-4.098,1.145-7.009,3.5-8.719C-23.41-13.384-20.294-14.191-15.938-14.434z M15.938-14.215
		c3.759,0.21,6.641,0.872,8.625,1.969c2.662,1.501,4.042,3.91,4.188,7.25c0-0.146,0,1.943,0,6.219c0,3.18,0.707,5.412,2.063,6.72
		c1.21,1.146,3.428,1.952,6.688,2.438v2.625c-3.243,0.437-5.494,1.199-6.688,2.313c-1.372,1.273-2.063,3.509-2.063,6.688
		c0,0.5,0.046,1.204,0.063,2.156c0.032,0.936,0.063,1.642,0.063,2.094c0,2.21-0.25,3.959-0.75,5.25
		c-0.678,1.71-1.959,3.107-3.75,4.156c-2.082,1.227-4.962,1.813-8.625,1.813v-2.094c3.792-0.388,6.233-1.666,7.25-3.844
		c0.613-1.291,0.938-4.068,0.938-8.344c0-3.841,0.866-6.617,2.625-8.345c1.662-1.612,4.499-2.673,8.5-3.125
		c-3.565-0.646-6.094-1.408-7.563-2.313c-1.517-0.937-2.486-2.376-2.938-4.313c-0.339-1.451-0.5-4.097-0.5-7.969
		c0-3.146-0.635-5.382-1.813-6.656c-1.065-1.146-3.15-2.025-6.313-2.688V-14.215z M-13.313-8.715h10.938
		c0.868,0,1.563,0.695,1.563,1.563c0,0.868-0.695,1.595-1.563,1.595h-10.938c-0.868,0-1.563-0.728-1.563-1.595
		C-14.876-8.019-14.181-8.715-13.313-8.715z M2.813-8.715h10.5c0.868,0,1.563,0.695,1.563,1.563V5.816
		c0,0.866-0.695,1.563-1.563,1.563h-10.5c-0.868,0-1.563-0.695-1.563-1.563V-7.152C1.25-8.02,1.944-8.715,2.813-8.715z
		 M-13.313-2.371h10.938c0.868,0,1.563,0.728,1.563,1.594c0,0.867-0.695,1.563-1.563,1.563h-10.938
		c-0.868,0-1.563-0.695-1.563-1.563C-14.876-1.645-14.181-2.371-13.313-2.371z M-13.313,3.973h10.938
		c0.868,0,1.563,0.728,1.563,1.595c0,0.866-0.695,1.563-1.563,1.563h-10.938c-0.868,0-1.563-0.695-1.563-1.563
		C-14.876,4.699-14.181,3.973-13.313,3.973z M-13.313,10.348h26.625c0.868,0,1.563,0.695,1.563,1.563s-0.695,1.563-1.563,1.563
		h-26.625c-0.868,0-1.563-0.694-1.563-1.563S-14.181,10.348-13.313,10.348z M-13.313,16.691h26.625c0.868,0,1.563,0.694,1.563,1.563
		s-0.695,1.563-1.563,1.563h-26.625c-0.868,0-1.563-0.695-1.563-1.563S-14.181,16.691-13.313,16.691z M-13.313,23.035h26.625
		c0.868,0,1.563,0.695,1.563,1.563c0,0.868-0.695,1.563-1.563,1.563h-26.625c-0.868,0-1.563-0.695-1.563-1.563
		C-14.876,23.73-14.181,23.035-13.313,23.035z M-13.313,29.379h26.625c0.868,0,1.563,0.695,1.563,1.563
		c0,0.867-0.695,1.563-1.563,1.563h-26.625c-0.868,0-1.563-0.695-1.563-1.563C-14.876,30.074-14.181,29.379-13.313,29.379z"/>
</symbol>
<symbol  id="drive" viewBox="-46.801 -32.959 93.603 65.918">
	
		<linearGradient id="SVGID_5_" gradientUnits="userSpaceOnUse" x1="-65.9849" y1="-126.0137" x2="62.0151" y2="1.9863" gradientTransform="matrix(1 0 0 1 0 64)">
		<stop  offset="0" style="stop-color:#06E1F7"/>
		<stop  offset="1" style="stop-color:#BAF9FF"/>
	</linearGradient>
	<path fill="url(#SVGID_5_)" d="M-35.062-32.959c-2.164,0-3.544,1.773-3.906,3.906l-7.813,38.406
		c-0.244,2.15,1.742,3.906,3.906,3.906h85.75c2.164,0,4.149-1.756,3.906-3.906l-7.813-38.406c-0.333-2.139-1.742-3.906-3.906-3.906
		H-35.062z M-42.874,17.209c-2.164,0-3.906,1.742-3.906,3.906v7.938c0,2.164,1.742,3.906,3.906,3.906h85.75
		c2.164,0,3.906-1.742,3.906-3.906v-7.938c0-2.164-1.742-3.906-3.906-3.906H-42.874z M-39.062,21.928h9.563
		c0.722,0,1.313,0.56,1.313,1.281v3.719c0,0.723-0.59,1.313-1.313,1.313h-9.563c-0.722,0-1.313-0.591-1.313-1.313v-3.719
		C-40.374,22.486-39.784,21.928-39.062,21.928z"/>
</symbol>
<symbol  id="excel-file" viewBox="-40.625 -52.755 81.251 105.509">
	
		<linearGradient id="SVGID_6_" gradientUnits="userSpaceOnUse" x1="-69.4375" y1="-122.5596" x2="58.5625" y2="5.4404" gradientTransform="matrix(1 0 0 1 0 64)">
		<stop  offset="0" style="stop-color:#06E1F7"/>
		<stop  offset="1" style="stop-color:#BAF9FF"/>
	</linearGradient>
	<path fill="url(#SVGID_6_)" d="M-35.5-52.746c-2.902,0.294-5.125,2.766-5.125,5.75v94c0,3.185,2.535,5.75,5.719,5.75h69.813
		c3.184,0,5.719-2.565,5.719-5.75v-70.625H19.594c-4.306,0-8.063-3.141-8.063-7.313v-21.813h-46.438
		C-35.105-52.746-35.308-52.766-35.5-52.746z M15.53-52.746v21.813c0,1.714,1.632,3.313,4.063,3.313h21.031L15.53-52.746z
		 M-20.875-3.496H-2v1.125C-3.606-2.311-4.71-2.052-5.313-1.59c-0.582,0.462-0.875,0.969-0.875,1.531
		c0,0.742,0.505,1.823,1.469,3.25l6.25,9.375l7.25-9.188c0.843-1.084,1.382-1.849,1.563-2.25c0.201-0.401,0.281-0.797,0.281-1.219
		s-0.103-0.804-0.344-1.125C9.979-1.637,9.586-1.93,9.125-2.09C8.663-2.271,7.694-2.351,6.25-2.371v-1.125h14.5v1.125
		c-1.145,0.062-2.09,0.23-2.813,0.531c-1.084,0.462-2.065,1.092-2.969,1.875c-0.904,0.783-2.167,2.236-3.813,4.344L3.03,14.723
		l8.781,13.063c2.429,3.613,4.21,5.911,5.375,6.875c1.185,0.942,2.693,1.462,4.5,1.563v1.125H4.155v-1.125
		c1.165-0.021,2.032-0.123,2.594-0.344c0.421-0.181,0.77-0.451,1.031-0.813c0.281-0.383,0.406-0.774,0.406-1.156
		c0-0.462-0.101-0.913-0.281-1.375c-0.141-0.341-0.693-1.23-1.656-2.656l-6.906-10.5L-9.22,30.349
		c-0.903,1.164-1.444,1.942-1.625,2.345c-0.181,0.382-0.281,0.797-0.281,1.219c0,0.643,0.271,1.172,0.813,1.594
		s1.599,0.658,3.125,0.719v1.125h-14.5v-1.125c1.024-0.101,1.914-0.304,2.656-0.625c1.245-0.521,2.438-1.241,3.563-2.125
		c1.125-0.883,2.398-2.234,3.844-4.063L-2,17.254l-8.031-11.781c-2.188-3.19-4.037-5.267-5.563-6.25
		c-1.526-1.004-3.294-1.532-5.281-1.594V-3.496z"/>
</symbol>
<symbol  id="folder" viewBox="-56.25 -39.82 112.5 79.642">
	
		<linearGradient id="SVGID_7_" gradientUnits="userSpaceOnUse" x1="-67.2881" y1="-124.7041" x2="60.7119" y2="3.2959" gradientTransform="matrix(1 0 0 1 0 64)">
		<stop  offset="0" style="stop-color:#06E1F7"/>
		<stop  offset="1" style="stop-color:#BAF9FF"/>
	</linearGradient>
	<path fill="url(#SVGID_7_)" d="M-48.844-39.82c-4.093,0-7.406,3.313-7.406,7.406v13.125V-8.07v40.517
		c0,4.094,3.313,7.375,7.406,7.375h97.688c4.093,0,7.406-3.281,7.406-7.375v-51.734c0-4.094-3.313-7.35-7.406-7.375H-10.58v-5.75
		c0-4.094-3.282-7.406-7.375-7.406L-48.844-39.82L-48.844-39.82z"/>
</symbol>
<symbol  id="forward" viewBox="-56.688 -50.031 113.376 100.063">
	
		<linearGradient id="SVGID_8_" gradientUnits="userSpaceOnUse" x1="-70.5708" y1="-121.4297" x2="57.4292" y2="6.5703" gradientTransform="matrix(1 0 0 1 0 64)">
		<stop  offset="0" style="stop-color:#06E1F7"/>
		<stop  offset="1" style="stop-color:#BAF9FF"/>
	</linearGradient>
	<path fill="url(#SVGID_8_)" d="M-4.469,50.031L56.688,0L-4.469-50.031v24.25h-52.219v52.063h52.219V50.031z"/>
</symbol>
<symbol  id="home" viewBox="-51.379 -44.001 102.759 88.001">
	
		<linearGradient id="SVGID_9_" gradientUnits="userSpaceOnUse" x1="-64.5088" y1="-127.4912" x2="63.4913" y2="0.5088" gradientTransform="matrix(1 0 0 1 0 64)">
		<stop  offset="0" style="stop-color:#06E1F7"/>
		<stop  offset="1" style="stop-color:#BAF9FF"/>
	</linearGradient>
	<path fill="url(#SVGID_9_)" d="M0.013-44.001l-48.938,44.69c-4.648,4.243-2.258,11.036,3.521,11.036h7.624v20.729
		C-37.78,38.853-32.634,44-26.235,44h53.077c6.398,0,11.545-5.146,11.545-11.545V11.727h7.043c5.779,0,8.133-6.793,3.485-11.036
		L32.868-13.978v-25.378c0-1.032-0.818-1.852-1.852-1.852h-9.947c-1.033,0-1.852,0.818-1.852,1.852v12.89L0.013-44.001z"/>
</symbol>
<symbol  id="html-file" viewBox="-40.625 -52.766 81.251 105.531">
	
		<linearGradient id="SVGID_10_" gradientUnits="userSpaceOnUse" x1="-69.4375" y1="-122.5625" x2="58.5625" y2="5.4375" gradientTransform="matrix(1 0 0 1 0 64)">
		<stop  offset="0" style="stop-color:#06E1F7"/>
		<stop  offset="1" style="stop-color:#BAF9FF"/>
	</linearGradient>
	<path fill="url(#SVGID_10_)" d="M-34.906-52.765c-3.184,0-5.719,2.565-5.719,5.75v94.03c0,3.185,2.535,5.75,5.719,5.75h69.813
		c3.184,0,5.719-2.565,5.719-5.75V-23.64H19.594c-4.306,0-8.063-3.142-8.063-7.313v-21.813L-34.906-52.765L-34.906-52.765z
		 M15.53-52.765v21.813c0,1.714,1.632,3.313,4.063,3.313h21.031L15.53-52.765z M7,0.61h4.094L3.969,30.079h-4.031L7,0.61z
		 M-12.906,4.704v5.531l-13.656,5.219l13.656,5.406v5.5l-19.563-8.5v-4.72L-12.906,4.704z M12.875,4.735l19.563,8.438v4.688
		l-19.563,8.5v-5.5l13.656-5.345l-13.656-5.313V4.735z"/>
</symbol>
<symbol  id="image-file" viewBox="-40.625 -52.75 81.251 105.5">
	
		<linearGradient id="SVGID_11_" gradientUnits="userSpaceOnUse" x1="-69.4375" y1="-122.5635" x2="58.5625" y2="5.4365" gradientTransform="matrix(1 0 0 1 0 64)">
		<stop  offset="0" style="stop-color:#06E1F7"/>
		<stop  offset="1" style="stop-color:#BAF9FF"/>
	</linearGradient>
	<path fill="url(#SVGID_11_)" d="M-34.906-52.75c-3.184,0-5.719,2.566-5.719,5.75v94c0,3.184,2.535,5.75,5.719,5.75h69.813
		c3.184,0,5.719-2.566,5.719-5.75v-70.625H19.594c-4.306,0-8.063-3.141-8.063-7.313V-52.75H-34.906z M15.53-52.75v21.813
		c0,1.714,1.632,3.313,4.063,3.313h21.031L15.53-52.75z M-25.625-6.125h51.25V32h-51.25V-6.125z M-22.125-1.781v26.813
		c0.845-1.285,2.291-2.888,4.719-4.063c13.329-6.456,20.173,1.404,28.719,2.906c4.361,0.767,8.54-2.459,10.844-4.625V-1.781H-22.125
		z M9.969,3.281c2.458,0,4.438,2.011,4.438,4.469s-1.979,4.438-4.438,4.438c-2.459,0-4.469-1.98-4.469-4.438
		S7.511,3.281,9.969,3.281z"/>
</symbol>
<symbol  id="javascript-file" viewBox="-40.625 -52.755 81.251 105.509">
	
		<linearGradient id="SVGID_12_" gradientUnits="userSpaceOnUse" x1="-69.4375" y1="-122.5596" x2="58.5625" y2="5.4404" gradientTransform="matrix(1 0 0 1 0 64)">
		<stop  offset="0" style="stop-color:#06E1F7"/>
		<stop  offset="1" style="stop-color:#BAF9FF"/>
	</linearGradient>
	<path fill="url(#SVGID_12_)" d="M-35.5-52.746c-2.902,0.294-5.125,2.766-5.125,5.75v94c0,3.185,2.535,5.75,5.719,5.75h69.813
		c3.184,0,5.719-2.565,5.719-5.75v-70.625H19.594c-4.306,0-8.063-3.141-8.063-7.313v-21.813h-46.438
		C-35.105-52.746-35.308-52.766-35.5-52.746z M15.53-52.746v21.813c0,1.714,1.632,3.313,4.063,3.313h21.031L15.53-52.746z
		 M-15.47-9.34v1.656c-2.35,0.493-4.025,1.158-5,2c-0.881,0.761-1.407,1.875-1.594,3.344c-0.067,0.587-0.094,2.367-0.094,5.344
		c0,3.244-0.759,5.481-2.281,6.75c-1.135,0.961-3.426,1.761-6.844,2.375c3.858,0.427,6.41,1.47,7.625,3.125
		c1.055,1.441,1.594,4.191,1.594,8.25c0,2.79,0.427,4.74,1.281,5.875c0.961,1.27,2.768,2.046,5.438,2.313v1.75
		c-6.928,0-10.523-2.68-10.75-8.031v-4c0-2.964-0.477-4.963-1.438-6.031c-0.948-1.068-2.871-1.818-5.781-2.219v-2.156
		c3.057-0.454,5.088-1.285,6.063-2.5c0.761-0.935,1.125-2.615,1.125-5.031c0-0.334-0.018-0.898-0.031-1.688
		c-0.013-0.801,0-1.408,0-1.875c0-3.392,0.957-5.804,2.906-7.219C-21.675-8.457-19.074-9.14-15.47-9.34z M15.469-9.34
		c3.11,0.174,5.483,0.718,7.125,1.625c2.203,1.241,3.38,3.236,3.5,6c0-0.12,0,1.588,0,5.125c0,2.63,0.535,4.48,1.656,5.563
		c1.001,0.948,2.866,1.631,5.563,2.031v2.156c-2.683,0.359-4.512,1.017-5.5,1.938c-1.135,1.056-1.719,2.901-1.719,5.531
		c0,0.414,0.018,0.994,0.031,1.781c0.027,0.773,0.031,1.376,0.031,1.75c0,1.829-0.211,3.274-0.625,4.344
		c-0.561,1.415-1.581,2.538-3.063,3.406c-1.722,1.015-4.095,1.531-7.125,1.531v-1.75c3.137-0.32,5.128-1.387,5.969-3.188
		c0.507-1.068,0.75-3.369,0.75-6.906c0-3.177,0.732-5.478,2.188-6.905c1.375-1.335,3.721-2.188,7.031-2.563
		c-2.95-0.534-5.035-1.158-6.25-1.906c-1.255-0.773-2.064-1.961-2.438-3.563c-0.28-1.201-0.406-3.421-0.406-6.625
		c0-2.604-0.494-4.445-1.469-5.5c-0.881-0.947-2.634-1.672-5.25-2.219V-9.34H15.469z M-8.031-4.121c0.748,0,1.386,0.261,1.906,0.781
		c0.534,0.507,0.781,1.146,0.781,1.906c0,0.773-0.247,1.402-0.781,1.938C-6.66,1.025-7.319,1.285-8.095,1.285
		c-0.775,0-1.43-0.243-1.938-0.75c-0.507-0.521-0.75-1.163-0.75-1.938c0-0.801,0.261-1.462,0.781-1.969S-8.819-4.121-8.031-4.121z
		 M-6.188,3.816c0.574,0,0.875,0.27,0.875,0.844c0,0.254-0.045,0.636-0.125,1.156c-0.08,0.507-0.125,0.89-0.125,1.155v14.281
		c0,4.552-1.276,7.801-3.813,9.75c-1.055,0.814-2.097,1.219-3.125,1.219c-0.761,0-1.408-0.18-1.969-0.594
		c-0.614-0.439-0.906-1.034-0.906-1.781c0-1.469,0.692-2.219,2.094-2.219c0.734,0,1.26,0.278,1.594,0.813
		c0.347,0.547,0.657,0.813,0.938,0.813c0.667,0,1-0.737,1-2.219l0.031-12.781c0-2.937-0.041-4.883-0.094-5.844
		c-0.04-0.734-0.31-1.211-0.844-1.438c-0.494-0.12-0.988-0.236-1.469-0.344c-0.521-0.16-0.781-0.511-0.781-1.031
		c0-0.507,0.323-0.795,0.938-0.875c-0.16,0.026,0.321,0.031,1.469,0.031c0.521,0,1.24-0.147,2.188-0.469
		C-7.353,3.965-6.643,3.816-6.188,3.816z M6.125,4.723c0.494,0,1.195,0.148,2.063,0.47c0.868,0.32,1.51,0.5,1.938,0.5
		c0.4,0,0.755-0.181,1.063-0.5c0.308-0.32,0.613-0.47,0.906-0.47c0.534,0,0.781,0.233,0.781,0.688c0,0.427-0.449,1.447-1.344,3.063
		c-0.895,1.616-1.492,2.406-1.813,2.406c-0.454,0-0.732-0.153-0.813-0.5c0,0,0-0.368,0-1.063c0-0.774-0.261-1.439-0.781-2
		C7.618,6.742,7.011,6.473,6.25,6.473c-0.828,0-1.556,0.211-2.156,0.625C3.413,7.564,3.063,8.186,3.063,8.973
		c0,1.041,0.872,1.868,2.594,2.47c3.097,1.067,4.692,1.621,4.813,1.688c1.735,0.936,2.625,2.314,2.625,4.156
		c0,2.016-0.809,3.643-2.438,4.844c-1.468,1.081-3.261,1.625-5.344,1.625c-1.428,0-2.821-0.396-4.156-1.156
		c-1.562-0.895-2.313-1.99-2.313-3.313c0-1.855,0.89-2.781,2.719-2.781c0.534,0,1.028,0.188,1.469,0.563
		c0.441,0.375,0.656,0.81,0.656,1.344c0,0.587-0.233,1.226-0.688,1.906c0.935,1.027,1.941,1.53,2.969,1.53
		c1.001,0,1.837-0.27,2.531-0.844c0.721-0.627,1.094-1.449,1.094-2.438c0-1.108-0.845-1.962-2.5-2.563
		c-1.522-0.547-3.059-1.078-4.594-1.625c-1.642-0.881-2.438-2.225-2.438-4c0-1.655,0.598-3.013,1.813-4.094
		C3.036,5.244,4.442,4.723,6.125,4.723z"/>
</symbol>
<symbol  id="json-file" viewBox="-40.625 -52.755 81.251 105.509">
	
		<linearGradient id="SVGID_13_" gradientUnits="userSpaceOnUse" x1="-69.4375" y1="-122.5596" x2="58.5625" y2="5.4404" gradientTransform="matrix(1 0 0 1 0 64)">
		<stop  offset="0" style="stop-color:#06E1F7"/>
		<stop  offset="1" style="stop-color:#BAF9FF"/>
	</linearGradient>
	<path fill="url(#SVGID_13_)" d="M-35.5-52.746c-2.902,0.294-5.125,2.766-5.125,5.75v94c0,3.185,2.535,5.75,5.719,5.75h69.813
		c3.184,0,5.719-2.565,5.719-5.75v-70.625H19.594c-4.306,0-8.063-3.141-8.063-7.313v-21.813h-46.438
		C-35.105-52.746-35.308-52.766-35.5-52.746z M15.53-52.746v21.813c0,1.714,1.632,3.313,4.063,3.313h21.031L15.53-52.746z
		 M-8.418-9.34v1.656c-2.35,0.493-4.025,1.158-5,2c-0.881,0.761-1.407,1.875-1.594,3.344c-0.067,0.587-0.094,2.367-0.094,5.344
		c0,3.244-0.759,5.481-2.281,6.75c-1.135,0.961-3.426,1.761-6.844,2.375c3.858,0.427,6.41,1.47,7.625,3.125
		c1.055,1.441,1.594,4.191,1.594,8.25c0,2.79,0.427,4.74,1.281,5.875c0.961,1.27,2.768,2.046,5.438,2.313v1.75
		c-6.928,0-10.523-2.68-10.75-8.031v-4c0-2.964-0.477-4.963-1.438-6.031c-0.948-1.068-2.871-1.818-5.781-2.219v-2.156
		c3.057-0.454,5.088-1.285,6.063-2.5c0.761-0.935,1.125-2.615,1.125-5.031c0-0.334-0.018-0.898-0.031-1.688
		c-0.013-0.801,0-1.408,0-1.875c0-3.392,0.957-5.804,2.906-7.219C-14.625-8.457-12.022-9.14-8.418-9.34z M8.417-9.34
		c3.11,0.174,5.483,0.718,7.125,1.625c2.203,1.241,3.38,3.236,3.5,6c0-0.12,0,1.588,0,5.125c0,2.63,0.535,4.48,1.656,5.563
		c1.001,0.948,2.866,1.631,5.563,2.031v2.156c-2.683,0.359-4.512,1.017-5.5,1.938c-1.135,1.056-1.719,2.901-1.719,5.531
		c0,0.414,0.018,0.994,0.031,1.781c0.027,0.773,0.031,1.376,0.031,1.75c0,1.829-0.211,3.274-0.625,4.344
		c-0.561,1.415-1.581,2.538-3.063,3.406c-1.722,1.015-4.095,1.531-7.125,1.531v-1.75c3.137-0.32,5.128-1.387,5.969-3.188
		c0.507-1.068,0.75-3.369,0.75-6.906c0-3.177,0.732-5.478,2.188-6.905c1.375-1.335,3.721-2.188,7.031-2.563
		c-2.95-0.534-5.035-1.158-6.25-1.906c-1.255-0.773-2.064-1.961-2.438-3.563c-0.28-1.201-0.406-3.421-0.406-6.625
		c0-2.604-0.494-4.445-1.469-5.5c-0.881-0.947-2.634-1.672-5.25-2.219L8.417-9.34L8.417-9.34z"/>
</symbol>
<symbol  id="markdown-file" viewBox="-40.625 -52.764 81.251 105.527">
	
		<linearGradient id="SVGID_14_" gradientUnits="userSpaceOnUse" x1="-69.4375" y1="-122.5625" x2="58.5625" y2="5.4375" gradientTransform="matrix(1 0 0 1 0 64)">
		<stop  offset="0" style="stop-color:#06E1F7"/>
		<stop  offset="1" style="stop-color:#BAF9FF"/>
	</linearGradient>
	<path fill="url(#SVGID_14_)" d="M-34.906-52.763c-3.184,0-5.719,2.565-5.719,5.75v94.026c0,3.185,2.535,5.75,5.719,5.75h69.813
		c3.184,0,5.719-2.565,5.719-5.75v-70.651H19.594c-4.306,0-8.063-3.142-8.063-7.313v-21.813L-34.906-52.763L-34.906-52.763z
		 M15.53-52.763v21.813c0,1.714,1.632,3.313,4.063,3.313h21.031L15.53-52.763z M-19.109,0.343l6.854,8.023L-5.4,0.343l8.566,0.166
		v26.039H-5.4V13.444l-6.822,8.483v0.082l-0.033-0.039l-0.031,0.039v-0.082l-6.822-8.483v13.104h-8.566V0.509L-19.109,0.343z
		 M11.742,0.343h8.807v13.42h7.127L16.145,29.085L4.615,13.763h7.127V0.343z"/>
</symbol>
<symbol  id="optical" viewBox="-51.003 -51.003 102.006 102.006">
	
		<linearGradient id="SVGID_15_" gradientUnits="userSpaceOnUse" x1="-64" y1="-128" x2="64" y2="-4.381253e-006" gradientTransform="matrix(1 0 0 1 0 64)">
		<stop  offset="0" style="stop-color:#06E1F7"/>
		<stop  offset="1" style="stop-color:#BAF9FF"/>
	</linearGradient>
	<path fill="url(#SVGID_15_)" d="M0-51.003c-28.169,0-51.003,22.834-51.003,51.003S-28.169,51.003,0,51.003S51.003,28.169,51.003,0
		S28.169-51.003,0-51.003z M0-9.953c5.503,0,9.953,4.45,9.953,9.953S5.503,9.953,0,9.953S-9.953,5.503-9.953,0S-5.503-9.953,0-9.953
		z"/>
</symbol>
<symbol  id="pdf-file" viewBox="-40.625 -52.766 81.251 105.531">
	
		<linearGradient id="SVGID_16_" gradientUnits="userSpaceOnUse" x1="-69.4375" y1="-122.5625" x2="58.5625" y2="5.4375" gradientTransform="matrix(1 0 0 1 0 64)">
		<stop  offset="0" style="stop-color:#06E1F7"/>
		<stop  offset="1" style="stop-color:#BAF9FF"/>
	</linearGradient>
	<path fill="url(#SVGID_16_)" d="M-34.906-52.765c-3.184,0-5.719,2.565-5.719,5.75v94.03c0,3.185,2.535,5.75,5.719,5.75h69.813
		c3.184,0,5.719-2.565,5.719-5.75V-23.64H19.594c-4.306,0-8.063-3.142-8.063-7.313v-21.813L-34.906-52.765L-34.906-52.765z
		 M15.53-52.765v21.813c0,1.714,1.632,3.313,4.063,3.313h21.031L15.53-52.765z M-0.875-21.827c0.388,0.003,0.736,0.085,1.063,0.219
		c1.304,0.534,2.035,1.643,2.625,2.97c0.59,1.326,0.99,2.976,1.063,4.905C4.018-9.902,3.509-6.782,2.719-3.515
		c1.261,3.081,2.676,6.201,4.094,8.531c1.903,3.126,4.542,6.724,7.094,9.688c0.473,0.55,0.903,0.908,1.375,1.406
		c1.727-0.319,3.324-0.516,4.688-0.438c2.602,0.146,4.388,0.6,5.656,1.594c0.634,0.498,1.118,1.198,1.281,2
		c0.163,0.803-0.033,1.604-0.375,2.22c-0.683,1.231-1.839,1.968-3.188,2.375c-1.349,0.406-2.95,0.425-4.5-0.22
		c-1.56-0.647-3.136-1.999-4.75-3.625C11.088,20.741,7.547,21.847,4,23.235c-3.048,1.191-7.128,2.943-10.906,4.625
		c-1.948,4.646-4.448,8.59-8.25,11.28c-3.403,2.409-6.149,3.08-8.281,2.688c-1.066-0.196-1.938-0.676-2.563-1.313
		c-0.625-0.637-1.066-1.4-0.969-2.438c0.194-2.059,1.579-3.383,3.188-4.844c1.609-1.461,3.606-2.854,5.563-3.906
		c1.72-0.926,5.004-2.451,8.438-4c1.704-4.322,3.111-9.383,4.719-14.875C-3.33,4.535-1.875,0.486-0.905-3.141
		c-0.267-0.672-0.602-1.371-0.845-2.03c-1.516-4.111-2.576-7.584-2.656-9.875c-0.076-2.158,0.145-3.745,0.813-5
		c0.334-0.627,0.842-1.208,1.563-1.531C-1.671-21.739-1.264-21.83-0.875-21.827z M-0.688-17.733
		c-0.132,0.549-0.262,1.302-0.219,2.531c0.023,0.673,0.513,2.566,1.156,4.75c0.061-1.032,0.168-2.012,0.125-3.156
		c-0.058-1.538-0.378-2.788-0.75-3.625C-0.539-17.6-0.539-17.549-0.688-17.733z M1.219,1.829c-0.891,2.886-1.728,5.566-2.906,9.594
		c-1.227,4.192-2.388,8.188-3.656,11.969c2.82-1.221,5.768-2.509,8.063-3.405c2.981-1.167,5.886-2.165,8.625-2.938
		c-0.029-0.034-0.064-0.028-0.094-0.063c-2.69-3.126-5.414-6.863-7.438-10.188C2.916,5.324,2.053,3.596,1.219,1.829z M19.78,19.142
		c-0.309-0.018-0.796,0.068-1.188,0.095c0.586,0.459,1.271,1.054,1.594,1.188c0.717,0.298,1.502,0.291,2.156,0.094
		c0.533-0.16,0.781-0.432,0.938-0.594C22.882,19.684,21.809,19.256,19.78,19.142z M-12.125,30.298
		c-1.526,0.723-3.605,1.677-4.438,2.125c-1.689,0.909-3.521,2.177-4.875,3.406c-1.157,1.051-1.733,2.046-1.906,2.344
		c0.111,0.082,0.209,0.19,0.531,0.25c0.855,0.157,2.697-0.053,5.625-2.125C-15.145,34.851-13.527,32.775-12.125,30.298z"/>
</symbol>
<symbol  id="php-file" viewBox="-40.625 -52.766 81.251 105.531">
	
		<linearGradient id="SVGID_17_" gradientUnits="userSpaceOnUse" x1="-69.4375" y1="-122.5625" x2="58.5625" y2="5.4375" gradientTransform="matrix(1 0 0 1 0 64)">
		<stop  offset="0" style="stop-color:#06E1F7"/>
		<stop  offset="1" style="stop-color:#BAF9FF"/>
	</linearGradient>
	<path fill="url(#SVGID_17_)" d="M-34.906-52.765c-3.184,0-5.719,2.565-5.719,5.75v94.03c0,3.185,2.535,5.75,5.719,5.75h69.813
		c3.184,0,5.719-2.565,5.719-5.75V-23.64H19.594c-4.306,0-8.063-3.142-8.063-7.313v-21.813L-34.906-52.765L-34.906-52.765z
		 M15.53-52.765v21.813c0,1.714,1.632,3.313,4.063,3.313h21.031L15.53-52.765z M13.563-0.765c3.668,0,6.582,0.98,8.75,2.905
		c2.168,1.91,3.25,4.142,3.25,6.688c0,1.41-0.384,2.742-1.188,4c-0.788,1.258-2.486,2.957-5.094,5.125
		c-1.349,1.122-2.198,2.036-2.531,2.719c-0.318,0.684-0.468,1.897-0.438,3.656H10.53c-0.015-0.834-0.031-1.351-0.031-1.531
		c0-1.88,0.316-3.412,0.938-4.625s1.854-2.578,3.719-4.094c1.865-1.517,2.98-2.499,3.344-2.969c0.561-0.743,0.844-1.574,0.844-2.47
		c0-1.242-0.5-2.309-1.5-3.188c-0.985-0.896-2.317-1.344-4-1.344c-1.622,0-2.971,0.48-4.063,1.405
		C8.689,6.44,7.939,7.841,7.53,9.735L1.655,9.017c0.167-2.714,1.3-5.043,3.438-6.938C7.247,0.185,10.076-0.765,13.563-0.765z
		 M-2.938,3.798v6.469l-15.938,6.095l15.938,6.344v6.438l-22.844-9.938v-5.531L-2.938,3.798z M10.53,26.548h6.375v6.375H10.53
		V26.548z"/>
</symbol>
<symbol  id="powerpoint-file" viewBox="-40.625 -52.755 81.251 105.509">
	
		<linearGradient id="SVGID_18_" gradientUnits="userSpaceOnUse" x1="-69.4375" y1="-122.5596" x2="58.5625" y2="5.4404" gradientTransform="matrix(1 0 0 1 0 64)">
		<stop  offset="0" style="stop-color:#06E1F7"/>
		<stop  offset="1" style="stop-color:#BAF9FF"/>
	</linearGradient>
	<path fill="url(#SVGID_18_)" d="M-35.5-52.746c-2.902,0.294-5.125,2.766-5.125,5.75v94c0,3.185,2.535,5.75,5.719,5.75h69.813
		c3.184,0,5.719-2.565,5.719-5.75v-70.625H19.594c-4.306,0-8.063-3.141-8.063-7.313v-21.813h-46.438
		C-35.105-52.746-35.308-52.766-35.5-52.746z M15.53-52.746v21.813c0,1.714,1.632,3.313,4.063,3.313h21.031L15.53-52.746z
		 M-15.563-3.496h14.969c3.655,0,6.548,0.395,8.656,1.156c2.108,0.743,3.867,1.994,5.313,3.781c1.446,1.786,2.188,3.894,2.188,6.344
		c0,3.333-1.104,6.067-3.313,8.156c-2.189,2.089-5.296,3.125-9.313,3.125c-0.984,0-2.043-0.078-3.188-0.22
		c-1.145-0.141-2.382-0.344-3.688-0.625v11.906c0,2.57,0.281,4.159,0.844,4.781c0.763,0.884,1.922,1.313,3.469,1.313h1.563v1.125
		h-17.5v-1.125h1.531c1.727,0,2.976-0.563,3.719-1.688c0.401-0.622,0.594-2.077,0.594-4.406V3.723c0-2.569-0.271-4.158-0.813-4.78
		c-0.783-0.885-1.954-1.313-3.5-1.313h-1.531V-3.496z M0-1.059c-1.024,0-2.331,0.181-3.938,0.563v17
		c1.064,0.201,2.021,0.337,2.844,0.438c0.823,0.101,1.511,0.155,2.094,0.155c2.088,0,3.9-0.8,5.406-2.405
		c1.526-1.627,2.281-3.711,2.281-6.281c0-1.768-0.371-3.4-1.094-4.906C6.871,1.978,5.855,0.841,4.53,0.098
		C3.206-0.665,1.687-1.059,0-1.059z"/>
</symbol>
<symbol  id="refresh" viewBox="-44.731 -51.982 89.462 103.966">
	
		<linearGradient id="SVGID_19_" gradientUnits="userSpaceOnUse" x1="-64.8408" y1="-127.1592" x2="63.1591" y2="0.8409" gradientTransform="matrix(1 0 0 1 0 64)">
		<stop  offset="0" style="stop-color:#06E1F7"/>
		<stop  offset="1" style="stop-color:#BAF9FF"/>
	</linearGradient>
	<path fill="url(#SVGID_19_)" d="M-2.038-51.982v14.561C-25.716-36.36-44.731-16.665-44.731,7.266
		c0,24.605,20.111,44.718,44.717,44.718S44.731,31.871,44.731,7.266h-15.29c0,16.343-13.113,29.428-29.455,29.428
		c-16.342,0-29.427-13.086-29.427-29.428c0-15.662,12.018-28.341,27.403-29.371v16.921l40.529-23.412L-2.038-51.982z"/>
</symbol>
<symbol  id="svg-file" viewBox="-40.625 -52.766 81.251 105.531">
	
		<linearGradient id="SVGID_20_" gradientUnits="userSpaceOnUse" x1="-69.4375" y1="-122.5625" x2="58.5625" y2="5.4375" gradientTransform="matrix(1 0 0 1 0 64)">
		<stop  offset="0" style="stop-color:#06E1F7"/>
		<stop  offset="1" style="stop-color:#BAF9FF"/>
	</linearGradient>
	<path fill="url(#SVGID_20_)" d="M-34.906-52.765c-3.184,0-5.719,2.565-5.719,5.75v94.03c0,3.185,2.535,5.75,5.719,5.75h69.813
		c3.184,0,5.719-2.565,5.719-5.75V-23.64H19.594c-4.306,0-8.063-3.142-8.063-7.313v-21.813L-34.906-52.765L-34.906-52.765z
		 M15.53-52.765v21.813c0,1.714,1.632,3.313,4.063,3.313h21.031L15.53-52.765z M-0.406-13.327c1.516,0.003,3.041,0.555,4.188,1.656
		L22.563,7.517c7.457,7.457-8.266,9.188-12.813,11.845c-1.583,1.614,4.852,2.696,4.188,4.688C12.592,28.074,8.93,25.498,5,29.517
		c-1.58,1.615,3.049,1.479,1.469,3.095c-2.982,2.183-9.106,3.695-9.594,1.03c-0.685-3.729-4.326-2.196-5.906-3.813
		c-1.58-1.616,3.236-3.322,1.656-4.938c-1.583-1.614-9.576-3.135-11.156-4.75c-1.58-1.615,6.08-2.791,4.5-4.405
		c-4.405-2.182-14.708-1.304-8.594-8.875l18.094-18.531C-3.443-12.784-1.922-13.33-0.406-13.327z M-0.25-11.546
		c-1.083-0.006-2.177,0.378-2.969,1.188c-1.576,1.611-4.441,4.397-6.969,7.125c-1.447,1.447-1.28,3.47,0.313,3.47h3.906l2.563-4.438
		l1.563,6.344l4.75-3l3,1.563l0.688-4.219l3.531,2.844c0.38-0.387,0.398-1.744-0.281-2.438l-7.156-7.25
		C1.911-11.146,0.833-11.54-0.25-11.546z M-8.845,16.735c-2.357,0,6.98,3.793,8.906,3.28c0.854-0.431,1.307-1.057,0.688-1.188
		C-1.039,18.532-8.36,17.036-8.845,16.735z M19.594,21.829c1.472-0.051,2.955,0.573,3.438,1.969c0,1.738-6.75,1.169-6.75,0.25
		C16.681,22.638,18.122,21.88,19.594,21.829z M-11.72,25.798c0.933-0.05,1.827,0.199,2.313,0.844
		c-0.742,1.936-3.209,3.668-4.813,2.281C-15.97,27.406-13.771,25.907-11.72,25.798z M15.438,25.923
		c2.256,0.461,2.704,2.07,2.25,2.531C15.649,29.651,13.371,27.776,15.438,25.923z"/>
</symbol>
<symbol  id="text-file" viewBox="-40.625 -52.766 81.251 105.531">
	
		<linearGradient id="SVGID_21_" gradientUnits="userSpaceOnUse" x1="-69.4375" y1="-122.5625" x2="58.5625" y2="5.4375" gradientTransform="matrix(1 0 0 1 0 64)">
		<stop  offset="0" style="stop-color:#06E1F7"/>
		<stop  offset="1" style="stop-color:#BAF9FF"/>
	</linearGradient>
	<path fill="url(#SVGID_21_)" d="M-34.906-52.765c-3.184,0-5.719,2.565-5.719,5.75v94.03c0,3.185,2.535,5.75,5.719,5.75h69.813
		c3.184,0,5.719-2.565,5.719-5.75V-23.64H19.594c-4.306,0-8.063-3.142-8.063-7.313v-21.813L-34.906-52.765L-34.906-52.765z
		 M15.53-52.765v21.813c0,1.714,1.632,3.313,4.063,3.313h21.031L15.53-52.765z M-28.095-13.202h34.5c0.979,0,1.75,0.802,1.75,1.781
		v2.625c0,0.979-0.771,1.781-1.75,1.781h-34.5c-0.979,0-1.75-0.803-1.75-1.781v-2.625C-29.845-12.4-29.074-13.202-28.095-13.202z
		 M-28.095,1.204h56.156c0.979,0,1.781,0.802,1.781,1.781v2.655c0,0.979-0.802,1.75-1.781,1.75h-56.156
		c-0.979,0-1.75-0.771-1.75-1.75V2.985C-29.845,2.006-29.074,1.204-28.095,1.204z M-28.095,15.642h56.156
		c0.979,0,1.781,0.771,1.781,1.75v2.656c0,0.979-0.802,1.781-1.781,1.781h-56.156c-0.979,0-1.75-0.802-1.75-1.781v-2.656
		C-29.845,16.412-29.074,15.642-28.095,15.642z M-28.095,30.048h56.156c0.979,0,1.781,0.771,1.781,1.75v2.656
		c0,0.979-0.802,1.781-1.781,1.781h-56.156c-0.979,0-1.75-0.803-1.75-1.781v-2.656C-29.845,30.818-29.074,30.048-28.095,30.048z"/>
</symbol>
<symbol  id="up" viewBox="-50.031 -56.688 100.062 113.377">
	
		<linearGradient id="SVGID_22_" gradientUnits="userSpaceOnUse" x1="-70.4453" y1="-121.5547" x2="57.5547" y2="6.4453" gradientTransform="matrix(1 0 0 1 0 64)">
		<stop  offset="0" style="stop-color:#06E1F7"/>
		<stop  offset="1" style="stop-color:#BAF9FF"/>
	</linearGradient>
	<path fill="url(#SVGID_22_)" d="M50.031,4.469L0-56.688L-50.031,4.469h24.25v52.22h52.063V4.469H50.031z"/>
</symbol>
<symbol  id="word-file" viewBox="-40.625 -52.755 81.251 105.509">
	
		<linearGradient id="SVGID_23_" gradientUnits="userSpaceOnUse" x1="-69.4375" y1="-122.5596" x2="58.5625" y2="5.4404" gradientTransform="matrix(1 0 0 1 0 64)">
		<stop  offset="0" style="stop-color:#06E1F7"/>
		<stop  offset="1" style="stop-color:#BAF9FF"/>
	</linearGradient>
	<path fill="url(#SVGID_23_)" d="M-35.5-52.746c-2.902,0.294-5.125,2.766-5.125,5.75v94c0,3.185,2.535,5.75,5.719,5.75h69.813
		c3.184,0,5.719-2.565,5.719-5.75v-70.625H19.594c-4.306,0-8.063-3.141-8.063-7.313v-21.813h-46.438
		C-35.105-52.746-35.308-52.766-35.5-52.746z M15.53-52.746v21.813c0,1.714,1.632,3.313,4.063,3.313h21.031L15.53-52.746z
		 M-28.281-3.621h15.031v1.125h-0.719c-1.058,0-1.879,0.24-2.438,0.719c-0.559,0.479-0.844,1.04-0.844,1.72
		c0,0.697,0.435,2.298,1.313,4.813l8,22.781l6.75-19.344l-1.219-3.438l-0.938-2.719C-3.764,1.037-4.231,0.169-4.75-0.59
		C-5.009-0.969-5.339-1.299-5.72-1.559C-6.218-1.918-6.721-2.18-7.22-2.34C-7.599-2.46-8.183-2.496-9-2.496v-1.125H6.78v1.125H5.719
		c-1.118,0-1.95,0.24-2.469,0.719C2.73-1.298,2.5-0.658,2.5,0.16c0,1.018,0.446,2.778,1.344,5.313l7.781,22.063l7.719-22.344
		c0.878-2.476,1.313-4.198,1.313-5.156c0-0.459-0.138-0.882-0.438-1.281c-0.279-0.398-0.655-0.684-1.094-0.844
		c-0.758-0.279-1.751-0.406-2.969-0.406V-3.62H28.28v1.125c-1.058,0-1.904,0.185-2.563,0.563c-0.659,0.379-1.276,1.087-1.875,2.125
		c-0.399,0.697-1.048,2.364-1.906,5L10.625,37.91H9.438l-9.25-25.969L-9,37.91h-1.094L-22.156,4.191
		c-0.898-2.516-1.448-4.011-1.688-4.47c-0.399-0.759-0.958-1.297-1.656-1.655c-0.679-0.38-1.604-0.563-2.781-0.563V-3.621z"/>
</symbol>
<g id="layer1" transform="translate(0, -64) scale(0.25)">
	
		<use xlink:href="#folder"  width="112.5" height="79.642" x="-56.25" y="-39.82" transform="matrix(0.8869 0 0 1.0251 71.707 352.5391)" overflow="visible"/>
	
		<use xlink:href="#binary-file"  width="81.251" height="105.531" x="-40.625" y="-52.766" transform="matrix(1.2555 0 0 1.2296 191.9922 345.4277)" overflow="visible"/>
	
		<use xlink:href="#svg-file"  width="81.251" height="105.531" x="-40.625" y="-52.766" transform="matrix(1.2555 0 0 1.2296 316.6602 346.3711)" overflow="visible"/>
	
		<use xlink:href="#javascript-file"  width="81.251" height="105.509" x="-40.625" y="-52.755" transform="matrix(1.2555 0 0 1.2296 443.6563 346.6758)" overflow="visible"/>
	
		<use xlink:href="#css-file"  width="81.251" height="105.509" x="-40.625" y="-52.755" transform="matrix(1.2555 0 0 1.2296 74.0371 497.2461)" overflow="visible"/>
	
		<use xlink:href="#php-file"  width="81.251" height="105.531" x="-40.625" y="-52.766" transform="matrix(1.2555 0 0 1.2296 193.3809 497.2461)" overflow="visible"/>
	
		<use xlink:href="#html-file"  width="81.251" height="105.531" x="-40.625" y="-52.766" transform="matrix(1.2555 0 0 1.2296 318.0547 497.2461)" overflow="visible"/>
	
		<use xlink:href="#json-file"  width="81.251" height="105.509" x="-40.625" y="-52.755" transform="matrix(1.2555 0 0 1.2296 444.0703 495.9121)" overflow="visible"/>
	
		<use xlink:href="#image-file"  width="81.251" height="105.5" x="-40.625" y="-52.75" transform="matrix(1.2555 0 0 1.2296 74.0391 653.1602)" overflow="visible"/>
	
		<use xlink:href="#text-file"  width="81.251" height="105.531" x="-40.625" y="-52.766" transform="matrix(1.2555 0 0 1.2296 194.7168 653.1602)" overflow="visible"/>
	
		<use xlink:href="#word-file"  width="81.251" height="105.509" x="-40.625" y="-52.755" transform="matrix(1.2555 0 0 1.2296 319.3945 653.1543)" overflow="visible"/>
	
		<use xlink:href="#pdf-file"  width="81.251" height="105.531" x="-40.625" y="-52.766" transform="matrix(1.2555 0 0 1.2296 442.7383 651.8262)" overflow="visible"/>
	
		<use xlink:href="#blank-file"  width="81.251" height="105.529" x="-40.625" y="-52.765" transform="matrix(1.2555 0 0 1.2296 75.3711 805.0664)" overflow="visible"/>
	
		<use xlink:href="#excel-file"  width="81.251" height="105.509" x="-40.625" y="-52.755" transform="matrix(1.2555 0 0 1.2296 198.7168 806.3984)" overflow="visible"/>
	
		<use xlink:href="#powerpoint-file"  width="81.251" height="105.509" x="-40.625" y="-52.755" transform="matrix(1.2555 0 0 1.2296 320.7227 805.0625)" overflow="visible"/>
	
		<use xlink:href="#markdown-file"  width="81.251" height="105.527" x="-40.625" y="-52.764" transform="matrix(1.2555 0 0 1.2296 440.0742 805.0664)" overflow="visible"/>
	
		<use xlink:href="#drive"  width="93.603" height="65.918" x="-46.801" y="-32.959" transform="matrix(1.0898 0 0 1.0674 75.3711 959.6406)" overflow="visible"/>
	
		<use xlink:href="#optical"  width="102.006" height="102.006" x="-51.003" y="-51.003" transform="matrix(1 0 0 0.9794 197.3828 958.3086)" overflow="visible"/>
	
		<use xlink:href="#home"  width="102.759" height="88.001" x="-51.379" y="-44.001" transform="matrix(-1.2137 0 0 1.1596 325.0313 959.8633)" overflow="visible"/>
	
		<use xlink:href="#back"  width="113.376" height="100.063" x="-56.688" y="-50.031" transform="matrix(0.8998 0 0 0.8812 76.7031 1087.543)" overflow="visible"/>
	
		<use xlink:href="#up"  width="100.062" height="113.377" x="-50.031" y="-56.688" transform="matrix(1.0195 0 0 0.9984 198.7148 1087.543)" overflow="visible"/>
	
		<use xlink:href="#forward"  width="113.376" height="100.063" x="-56.688" y="-50.031" transform="matrix(0.8998 0 0 0.8812 318.0547 1088.8789)" overflow="visible"/>
	
		<use xlink:href="#refresh"  width="89.462" height="103.966" x="-44.731" y="-51.982" transform="matrix(1.1403 0 0 1.1168 433.4063 1090.207)" overflow="visible"/>
</g>
</svg>
